<svg width="21" height="21" viewBox="0 0 21 21" fill="none" xmlns="http://www.w3.org/2000/svg">
<path d="M8.1871 10.5009L0.335487 2.64892C0.119511 2.43278 0.000341415 2.14441 0 1.83692C0 1.52926 0.119169 1.24056 0.335487 1.02475L1.02354 0.336874C1.23985 0.120215 1.52822 0.0015564 1.83605 0.0015564C2.14337 0.0015564 2.43173 0.120215 2.64805 0.336874L10.4997 8.18831L18.3516 0.336874C18.5676 0.120215 18.8561 0.0015564 19.1638 0.0015564C19.4711 0.0015564 19.7596 0.120215 19.9756 0.336874L20.664 1.02475C21.112 1.47275 21.112 2.20143 20.664 2.64892L12.8122 10.5009L20.664 18.3525C20.8801 18.569 20.9991 18.8573 20.9991 19.1648C20.9991 19.4723 20.8801 19.7607 20.664 19.977L19.9758 20.6649C19.7598 20.8814 19.4711 21.0002 19.164 21.0002C18.8563 21.0002 18.5678 20.8814 18.3518 20.6649L10.4998 12.8133L2.64822 20.6649C2.4319 20.8814 2.14354 21.0002 1.83622 21.0002H1.83588C1.52839 21.0002 1.24002 20.8814 1.02371 20.6649L0.335659 19.977C0.119684 19.7608 0.000511169 19.4723 0.000511169 19.1648C0.000511169 18.8573 0.119684 18.569 0.335659 18.3527L8.1871 10.5009Z" fill="#BDBDBD"/>
</svg>
