<svg width="44" height="44" viewBox="0 0 44 44" fill="none" xmlns="http://www.w3.org/2000/svg">
<path d="M30.25 0H13.75C6.15725 0 0 6.15725 0 13.75V30.25C0 37.8428 6.15725 44 13.75 44H30.25C37.8428 44 44 37.8428 44 30.25V13.75C44 6.15725 37.8428 0 30.25 0ZM39.875 30.25C39.875 35.5575 35.5575 39.875 30.25 39.875H13.75C8.4425 39.875 4.125 35.5575 4.125 30.25V13.75C4.125 8.4425 8.4425 4.125 13.75 4.125H30.25C35.5575 4.125 39.875 8.4425 39.875 13.75V30.25Z" fill="#1943EF"/>
<path d="M22 11C15.9252 11 11 15.9252 11 22C11 28.0748 15.9252 33 22 33C28.0748 33 33 28.0748 33 22C33 15.9252 28.0748 11 22 11ZM22 28.875C18.2105 28.875 15.125 25.7895 15.125 22C15.125 18.2078 18.2105 15.125 22 15.125C25.7895 15.125 28.875 18.2078 28.875 22C28.875 25.7895 25.7895 28.875 22 28.875Z" fill="#1943EF"/>
<path d="M33.825 11.6407C34.6345 11.6407 35.2908 10.9845 35.2908 10.175C35.2908 9.36547 34.6345 8.70923 33.825 8.70923C33.0155 8.70923 32.3593 9.36547 32.3593 10.175C32.3593 10.9845 33.0155 11.6407 33.825 11.6407Z" fill="#1943EF"/>
</svg>
