<svg width="44" height="42" viewBox="0 0 44 42" fill="none" xmlns="http://www.w3.org/2000/svg">
<path d="M43.6723 0.763228C43.2916 0.336981 42.6909 0.222685 42.1933 0.440105L0.77179 18.5728C0.312887 18.7739 0.0112489 19.2233 7.70906e-05 19.7252C-0.0110947 20.2262 0.269919 20.6885 0.720228 20.9103L10.6107 25.7743L13.0754 40.5606C13.1553 41.1217 13.5961 41.5729 14.1702 41.6545C14.5827 41.7138 14.9926 41.5686 15.2762 41.2764L23.0844 33.4682L34.227 41.4277C34.5845 41.682 35.0451 41.7379 35.4507 41.5772C35.8572 41.4165 36.1546 41.0599 36.2405 40.631L43.9748 1.87353C44.0513 1.48939 43.9525 1.07776 43.6723 0.763228ZM11.6316 23.4033L4.34848 19.8214L33.1218 7.22568L11.6316 23.4033ZM15.6655 27.2352L14.4667 33.2293L13.1733 25.4692L28.9831 13.5678L16.017 26.5778C15.8348 26.76 15.7136 26.9972 15.6655 27.2352ZM16.4501 36.4562L17.8027 29.6956L20.9575 31.9488L16.4501 36.4562ZM34.1024 38.1698L18.9148 27.322L40.6112 5.55335L34.1024 38.1698Z" fill="#1943EF"/>
</svg>
